<svg xmlns="http://www.w3.org/2000/svg" viewBox="0 0 480.97 164.27"><defs><style>.cls-1{fill:#fff;}</style></defs><g id="Layer_2" data-name="Layer 2"><g id="Layer_1-2" data-name="Layer 1"><path class="cls-1" d="M72.23,116.91H32.47v-.79l38.58-52q3.15-3.93,3.15-10.23V42.12Q74.2,38,70.07,38H5.9q-4.13,0-4.13,4.14v13c0,2.88,1.38,4.33,4.13,4.33H45.46v.78L3.74,116.32A17.81,17.81,0,0,0,0,127.73v6.5q0,4.13,4.13,4.13h68.1c2.76,0,4.13-1.38,4.13-4.13v-13C76.36,118.35,75,116.91,72.23,116.91Z"/><path class="cls-1" d="M139.14,38H123.6q-15.55,0-24,8.27T91.12,70.06v36.22q0,15.54,8.47,23.81t24,8.27h43.49a4.58,4.58,0,0,0,3.25-.89,4.23,4.23,0,0,0,.88-3.05v-13c0-2.88-1.37-4.33-4.13-4.33H127.34q-6.3,0-9-2.65c-1.77-1.78-2.66-4.69-2.66-8.76v-4.33c0-1.44.79-2.17,2.37-2.17h49.4c2.75,0,4.13-1.37,4.13-4.13v-25q0-15.54-8.46-23.81T139.14,38ZM147,80.3a1.92,1.92,0,0,1-2.17,2.16H118.09a1.91,1.91,0,0,1-2.17-2.16V70.85q0-6.3,2.56-8.85c1.7-1.71,4.66-2.56,8.86-2.56h8.26q6.3,0,8.86,2.56c1.7,1.7,2.56,4.65,2.56,8.85Z"/><path class="cls-1" d="M268.05,0H251.33q-4.14,0-4.14,4.13V48.61h-.79a14.92,14.92,0,0,0-7.67-8A26.46,26.46,0,0,0,227.12,38h-8.07q-15.17,0-22.93,8.27t-7.77,23.81v36.22q0,15.54,7.77,23.81t22.93,8.27h8.07a26.46,26.46,0,0,0,11.61-2.66,14.92,14.92,0,0,0,7.67-8h.79v6.5q0,4.13,4.14,4.13h16.72q4.14,0,4.14-4.13V4.13Q272.19,0,268.05,0ZM247.19,101.75q0,15-13.58,15h-8.85q-6.31,0-8.86-2.66t-2.56-9V71.25q0-6.3,2.56-9t8.86-2.66h8.85q13.59,0,13.58,15Z"/><path class="cls-1" d="M337.86,38H322.32q-15.56,0-24,8.27t-8.46,23.81v36.22q0,15.54,8.46,23.81t24,8.27h43.49a4.58,4.58,0,0,0,3.25-.89,4.23,4.23,0,0,0,.88-3.05v-13c0-2.88-1.37-4.33-4.13-4.33H326.06c-4.21,0-7.19-.88-9-2.65s-2.66-4.69-2.66-8.76v-4.33c0-1.44.79-2.17,2.37-2.17H366.2c2.76,0,4.14-1.37,4.14-4.13v-25q0-15.54-8.46-23.81T337.86,38Zm7.88,42.32a1.92,1.92,0,0,1-2.17,2.16H316.81a1.91,1.91,0,0,1-2.17-2.16V70.85q0-6.3,2.56-8.85t8.86-2.56h8.26q6.3,0,8.86,2.56c1.7,1.7,2.56,4.65,2.56,8.85Z"/><rect class="cls-1" x="419.53" y="113.91" width="9.51" height="0.6" rx="0.25"/><circle class="cls-1" cx="445.19" cy="154.2" r="10.07"/><circle class="cls-1" cx="407.24" cy="154.2" r="10.07"/><path class="cls-1" d="M477.32,16.73l-.08,0h-6q-15.56,0-24,8.26t-8.46,23.81l0,12.59.1,44.14c0,.83,0,1.6-.11,2.33v5.53a3.55,3.55,0,0,1-3.55,3.56H412.87a3.55,3.55,0,0,1-3.55-3.56V64.57A3.55,3.55,0,0,1,412.87,61l2.06,0a3.35,3.35,0,0,1,2.05.71,3,3,0,0,0,2.36,1.62h6.08A1.6,1.6,0,0,0,427,61.7V42s.13-2.59-3.75-2.59h-5.06c-3.83-.1-7.82-.09-11.07,0h-.83A21.52,21.52,0,0,0,384.8,60.88v56.24a21.52,21.52,0,0,0,21.52,21.53h35.76a21.53,21.53,0,0,0,21.53-21.53V60.88c0-.64,0-1.29-.08-1.92V49.55c0-4.2.85-7.14,2.55-8.85s4.66-2.56,8.86-2.56h3.53c2.06-.53,2.5-3,2.5-3V19.46C481,16.82,477.32,16.73,477.32,16.73Z"/></g></g></svg>